<svg xmlns="http://www.w3.org/2000/svg" viewBox="36.741 35.746 242.579 40.659"><path d="M90.287 71.273V46.728c0-.994-.048-1.916-.144-2.758a17.695 17.695 0 00-.372-2.182h13.597c.152.59.272 1.287.358 2.082.086.795.129 1.69.129 2.686 1.357-1.834 2.983-3.205 4.879-4.113 1.895-.908 4.064-1.359 6.514-1.359 2.525 0 4.72.477 6.585 1.432 1.866.955 3.431 2.398 4.692 4.328 1.682-1.986 3.525-3.445 5.533-4.37 2.006-.929 4.31-1.39 6.908-1.39 4.013 0 7.104 1.021 9.272 3.066 2.169 2.045 3.253 4.961 3.253 8.746v18.377h-13.452v-17.43c0-1.777-.41-3.125-1.23-4.043-.82-.918-2.016-1.375-3.58-1.375-1.892 0-3.293.678-4.21 2.035-.917 1.355-1.375 3.44-1.375 6.248v14.565h-13.451v-17.43c0-1.703-.407-3.029-1.221-3.986-.813-.955-1.958-1.432-3.432-1.432-1.896 0-3.315.688-4.264 2.063-.949 1.375-1.422 3.451-1.422 6.221v14.564H90.287zm91.194-12.746c-4.403 0-7.403.287-9.002.857-1.598.568-2.396 1.568-2.396 2.994 0 .971.386 1.727 1.163 2.268.775.541 1.871.814 3.287.814 2.314 0 4.052-.537 5.21-1.613 1.158-1.074 1.738-2.695 1.738-4.863v-.457zm.285 8.393c-1.3 1.695-2.981 2.953-5.048 3.771-2.063.82-4.567 1.23-7.513 1.23-4.186 0-7.407-.745-9.662-2.235-2.256-1.486-3.384-3.596-3.384-6.324 0-3.723 1.944-6.406 5.835-8.059 3.89-1.65 10.403-2.514 19.542-2.59 0-.057.008-.168.027-.332a3.48 3.48 0 00.028-.36c0-1.522-.454-2.657-1.361-3.409-.907-.75-2.27-1.127-4.085-1.127-1.645 0-2.905.273-3.784.822-.878.55-1.404 1.371-1.577 2.467h-12.569c.059-3.27 1.606-5.699 4.646-7.295 3.04-1.598 7.674-2.395 13.905-2.395 5.983 0 10.438.93 13.361 2.8 2.926 1.862 4.389 4.7 4.389 8.51v15.013c0 .938.043 1.691.129 2.264.086.57.232 1.107.444 1.604h-12.608a11.954 11.954 0 01-.546-2.135 14.243 14.243 0 01-.169-2.22zm19.549 4.353V46.728c0-.994-.048-1.916-.145-2.758-.096-.842-.22-1.57-.37-2.182h13.597c.172.46.297 1.064.372 1.824.077.756.112 1.738.112 2.943 1.702-1.854 3.538-3.229 5.508-4.127 1.971-.896 4.148-1.346 6.538-1.346 4.418 0 7.771 1.137 10.066 3.41 2.295 2.275 3.442 5.602 3.442 9.98v16.801h-13.568V54.904c0-2.256-.436-3.9-1.305-4.932-.869-1.032-2.24-1.547-4.114-1.547-2.196 0-3.842.688-4.931 2.063-1.091 1.375-1.637 3.451-1.637 6.221v14.564h-13.565zm45.756-29.483h31.193v8.118l-14.75 13.377h15.806v7.988h-33.365V63.82l15.579-14.162h-14.463z"/><path fill="#006e84" d="M62.21 53.13c.5.87.797 1.868.797 2.942a5.93 5.93 0 11-11.861 0 5.93 5.93 0 015.93-5.93c1.059 0 2.044.29 2.905.774l10.29-10.29c-7.965-6.852-20.03-6.486-27.596 1.082-7.912 7.92-7.912 20.855 0 28.725 7.957 7.962 20.883 7.962 28.793 0 7.559-7.518 7.896-19.583 1.032-27.594z"/></svg>